# xmcd
#
# Track frame offsets:
#	182
#	17942
#	34062
#	56357
#	84802
#	111417
#	139125
#	167140
#	180165
#	206992
#	224417
#	244870
#	270077
#
# Disc length: 4176 seconds
#
# Revision: 2
# Processed by: cddbd v1.5.1PL0 Copyright (c) Steve Scherf et al.
# Submitted via: audiograbber 1.83.01
#
DISCID=b0104e0d
DTITLE=Various Artist - American Livin' Blues Festival
DYEAR=1982
DGENRE=Blues
TTITLE0=Smokie Smothers - I Wanna Be With You
TTITLE1=Lester Davenport - Be Careful Baby
TTITLE2=Lester Davenport - I Got A Woman
TTITLE3=Lafayette Leake - Fast Boogie
TTITLE4=Lafayette Leake - I'm Gonna Move To The Outskirts Of Town
TTITLE5=Lafayette Leake - Short Dressed Woman
TTITLE6=Lafayette Leake - Trouble In Mind
TTITLE7=Queen Sylvia - Early Time Rock
TTITLE8=Queen Sylvia - Blues And Trubles
TTITLE9=Queen Sylvia - Gonna Find My Baby
TTITLE10=Jimmy Dawkins - Don't Ch'a Wanna Know
TTITLE11=Jimmy Dawkins - Sound Of The West Side
TTITLE12=American Livin´ Blues Festival - Paris Jam
EXTD=
EXTT0=
EXTT1=
EXTT2=
EXTT3=
EXTT4=
EXTT5=
EXTT6=
EXTT7=
EXTT8=
EXTT9=
EXTT10=
EXTT11=
EXTT12=
PLAYORDER=
